<mxfile host="app.diagrams.net" agent="Mozilla/5.0 (Macintosh; Intel Mac OS X 10_15_7) AppleWebKit/537.36 (KHTML, like Gecko) Chrome/128.0.0.0 Safari/537.36" version="24.7.11">
  <diagram name="Page-1" id="e56a1550-8fbb-45ad-956c-1786394a9013">
    <mxGraphModel dx="954" dy="540" grid="1" gridSize="10" guides="1" tooltips="1" connect="1" arrows="1" fold="1" page="1" pageScale="1" pageWidth="1100" pageHeight="850" background="none" math="0" shadow="0">
      <root>
        <mxCell id="0" />
        <mxCell id="1" parent="0" />
        <mxCell id="OdP9M_-ECtspS7WG8TOW-9" value="" style="edgeStyle=orthogonalEdgeStyle;rounded=0;orthogonalLoop=1;jettySize=auto;html=1;exitX=1.006;exitY=0.645;exitDx=0;exitDy=0;exitPerimeter=0;" edge="1" parent="1" source="OdP9M_-ECtspS7WG8TOW-2" target="OdP9M_-ECtspS7WG8TOW-7">
          <mxGeometry relative="1" as="geometry" />
        </mxCell>
        <mxCell id="OdP9M_-ECtspS7WG8TOW-17" value="" style="edgeStyle=orthogonalEdgeStyle;rounded=0;orthogonalLoop=1;jettySize=auto;html=1;exitX=1;exitY=0.5;exitDx=0;exitDy=0;" edge="1" parent="1" source="OdP9M_-ECtspS7WG8TOW-2" target="OdP9M_-ECtspS7WG8TOW-15">
          <mxGeometry relative="1" as="geometry" />
        </mxCell>
        <mxCell id="OdP9M_-ECtspS7WG8TOW-1" value="(Collection)&lt;br&gt;Character" style="swimlane;childLayout=stackLayout;horizontal=1;startSize=50;horizontalStack=0;rounded=1;fontSize=14;fontStyle=0;strokeWidth=2;resizeParent=0;resizeLast=1;shadow=0;dashed=0;align=center;arcSize=4;whiteSpace=wrap;html=1;" vertex="1" parent="1">
          <mxGeometry x="310" y="110" width="160" height="160" as="geometry" />
        </mxCell>
        <mxCell id="OdP9M_-ECtspS7WG8TOW-2" value="+id&lt;br&gt;+name&lt;br&gt;+description&lt;div&gt;+thumbnail {} : object&lt;/div&gt;&lt;div&gt;+comics {} : object&lt;br&gt;&lt;div&gt;&lt;br&gt;&lt;/div&gt;&lt;/div&gt;" style="align=left;strokeColor=none;fillColor=none;spacingLeft=4;fontSize=12;verticalAlign=top;resizable=0;rotatable=0;part=1;html=1;" vertex="1" parent="OdP9M_-ECtspS7WG8TOW-1">
          <mxGeometry y="50" width="160" height="110" as="geometry" />
        </mxCell>
        <mxCell id="OdP9M_-ECtspS7WG8TOW-12" value="" style="edgeStyle=orthogonalEdgeStyle;rounded=0;orthogonalLoop=1;jettySize=auto;html=1;" edge="1" parent="1" source="OdP9M_-ECtspS7WG8TOW-7" target="OdP9M_-ECtspS7WG8TOW-10">
          <mxGeometry relative="1" as="geometry" />
        </mxCell>
        <mxCell id="OdP9M_-ECtspS7WG8TOW-7" value="(Collection)&lt;br&gt;ComicList" style="swimlane;childLayout=stackLayout;horizontal=1;startSize=50;horizontalStack=0;rounded=1;fontSize=14;fontStyle=0;strokeWidth=2;resizeParent=0;resizeLast=1;shadow=0;dashed=0;align=center;arcSize=4;whiteSpace=wrap;html=1;" vertex="1" parent="1">
          <mxGeometry x="540" y="265" width="160" height="160" as="geometry" />
        </mxCell>
        <mxCell id="OdP9M_-ECtspS7WG8TOW-8" value="+available : int&lt;br&gt;+collectionURI : str&lt;br&gt;+items [] : object&lt;div&gt;+returned : int&lt;/div&gt;&lt;div&gt;&lt;div&gt;&lt;br&gt;&lt;/div&gt;&lt;/div&gt;" style="align=left;strokeColor=none;fillColor=none;spacingLeft=4;fontSize=12;verticalAlign=top;resizable=0;rotatable=0;part=1;html=1;" vertex="1" parent="OdP9M_-ECtspS7WG8TOW-7">
          <mxGeometry y="50" width="160" height="110" as="geometry" />
        </mxCell>
        <mxCell id="OdP9M_-ECtspS7WG8TOW-10" value="(Document) ComicSummary" style="swimlane;childLayout=stackLayout;horizontal=1;startSize=50;horizontalStack=0;rounded=1;fontSize=14;fontStyle=0;strokeWidth=2;resizeParent=0;resizeLast=1;shadow=0;dashed=0;align=center;arcSize=4;whiteSpace=wrap;html=1;" vertex="1" parent="1">
          <mxGeometry x="780" y="292.5" width="160" height="105" as="geometry" />
        </mxCell>
        <mxCell id="OdP9M_-ECtspS7WG8TOW-11" value="+resourceURI&lt;br&gt;+name" style="align=left;strokeColor=none;fillColor=none;spacingLeft=4;fontSize=12;verticalAlign=top;resizable=0;rotatable=0;part=1;html=1;" vertex="1" parent="OdP9M_-ECtspS7WG8TOW-10">
          <mxGeometry y="50" width="160" height="55" as="geometry" />
        </mxCell>
        <mxCell id="OdP9M_-ECtspS7WG8TOW-15" value="(Document)&lt;br&gt;Thumbnail" style="swimlane;childLayout=stackLayout;horizontal=1;startSize=50;horizontalStack=0;rounded=1;fontSize=14;fontStyle=0;strokeWidth=2;resizeParent=0;resizeLast=1;shadow=0;dashed=0;align=center;arcSize=4;whiteSpace=wrap;html=1;" vertex="1" parent="1">
          <mxGeometry x="570" y="60" width="160" height="100" as="geometry" />
        </mxCell>
        <mxCell id="OdP9M_-ECtspS7WG8TOW-16" value="+path&lt;br&gt;+extension&lt;div&gt;&lt;div&gt;&lt;br&gt;&lt;/div&gt;&lt;/div&gt;" style="align=left;strokeColor=none;fillColor=none;spacingLeft=4;fontSize=12;verticalAlign=top;resizable=0;rotatable=0;part=1;html=1;" vertex="1" parent="OdP9M_-ECtspS7WG8TOW-15">
          <mxGeometry y="50" width="160" height="50" as="geometry" />
        </mxCell>
      </root>
    </mxGraphModel>
  </diagram>
</mxfile>
